<svg width="17px" height="16px" viewBox="933 336 17 16" version="1.1" xmlns="http://www.w3.org/2000/svg" xmlns:xlink="http://www.w3.org/1999/xlink">
  <g id="cancel" stroke="none" stroke-width="1" fill="none" fill-rule="evenodd" transform="translate(933.000000, 336.000000)">
    <path d="M7.23525,8.0704 L0.15325,15.0434462 C-0.0435,15.2371692 -0.0435,15.5510154 0.15325,15.7447385 C0.2515,15.8417231 0.3805,15.8899692 0.50925,15.8899692 C0.63825,15.8899692 0.767,15.8417231 0.86525,15.7447385 L8.0005,8.71926154 L15.13575,15.7447385 C15.23425,15.8417231 15.363,15.8899692 15.49175,15.8899692 C15.6205,15.8899692 15.7495,15.8417231 15.84775,15.7447385 C16.0445,15.5510154 16.0445,15.2371692 15.84775,15.0434462 L8.766,8.0704 L15.8525,1.09243077 C16.04925,0.898707692 16.04925,0.584861538 15.8525,0.391138462 C15.65575,0.197661538 15.337,0.197661538 15.1405,0.391138462 L8.00075,7.42153846 L0.86025,0.391384615 C0.6635,0.197907692 0.345,0.197907692 0.14825,0.391384615 C-0.0485,0.585107692 -0.0485,0.898953846 0.14825,1.09267692 L7.23525,8.0704 Z" id="Shape" fill="#FFFFFF" fill-rule="nonzero"></path>
  </g>
</svg>
